<mxfile host="app.diagrams.net" agent="Mozilla/5.0 (Windows NT 10.0; Win64; x64) AppleWebKit/537.36 (KHTML, like Gecko) Chrome/128.0.0.0 Safari/537.36 OPR/114.0.0.0" version="24.8.4">
  <diagram name="Page-1" id="NrCJpfxuMmYyC89XqXmt">
    <mxGraphModel dx="2460" dy="870" grid="0" gridSize="10" guides="1" tooltips="1" connect="1" arrows="1" fold="1" page="0" pageScale="1" pageWidth="850" pageHeight="1100" math="0" shadow="0">
      <root>
        <mxCell id="0" />
        <mxCell id="1" parent="0" />
        <mxCell id="WWvhdYle3YNvxs-en4D2-1" value="" style="rounded=1;whiteSpace=wrap;html=1;" vertex="1" parent="1">
          <mxGeometry x="140" y="170" width="120" height="60" as="geometry" />
        </mxCell>
        <mxCell id="WWvhdYle3YNvxs-en4D2-2" value="6" style="rounded=1;whiteSpace=wrap;html=1;" vertex="1" parent="1">
          <mxGeometry x="520" y="170" width="120" height="60" as="geometry" />
        </mxCell>
        <mxCell id="WWvhdYle3YNvxs-en4D2-3" value="5" style="rounded=0;whiteSpace=wrap;html=1;" vertex="1" parent="1">
          <mxGeometry x="398" y="170" width="120" height="60" as="geometry" />
        </mxCell>
        <mxCell id="WWvhdYle3YNvxs-en4D2-4" value="2" style="rounded=0;whiteSpace=wrap;html=1;" vertex="1" parent="1">
          <mxGeometry x="14" y="173" width="120" height="60" as="geometry" />
        </mxCell>
        <mxCell id="WWvhdYle3YNvxs-en4D2-5" value="4" style="rounded=1;whiteSpace=wrap;html=1;" vertex="1" parent="1">
          <mxGeometry x="270" y="170" width="120" height="60" as="geometry" />
        </mxCell>
        <mxCell id="WWvhdYle3YNvxs-en4D2-6" value="&lt;br&gt;&lt;span style=&quot;font-size: 16px;&quot;&gt;1&lt;/span&gt;" style="rounded=0;whiteSpace=wrap;html=1;" vertex="1" parent="1">
          <mxGeometry x="-112" y="170" width="120" height="60" as="geometry" />
        </mxCell>
        <mxCell id="WWvhdYle3YNvxs-en4D2-7" value="3" style="text;strokeColor=none;fillColor=none;html=1;align=center;verticalAlign=middle;whiteSpace=wrap;rounded=0;fontSize=16;" vertex="1" parent="1">
          <mxGeometry x="186" y="185" width="60" height="30" as="geometry" />
        </mxCell>
        <mxCell id="WWvhdYle3YNvxs-en4D2-8" value="Jump of 3" style="text;strokeColor=none;fillColor=none;html=1;align=center;verticalAlign=middle;whiteSpace=wrap;rounded=0;fontSize=16;" vertex="1" parent="1">
          <mxGeometry x="-82" y="258" width="99" height="30" as="geometry" />
        </mxCell>
        <mxCell id="WWvhdYle3YNvxs-en4D2-10" value="" style="rounded=1;whiteSpace=wrap;html=1;" vertex="1" parent="1">
          <mxGeometry x="121" y="331" width="120" height="60" as="geometry" />
        </mxCell>
        <mxCell id="WWvhdYle3YNvxs-en4D2-11" value="6" style="rounded=1;whiteSpace=wrap;html=1;" vertex="1" parent="1">
          <mxGeometry x="501" y="331" width="120" height="60" as="geometry" />
        </mxCell>
        <mxCell id="WWvhdYle3YNvxs-en4D2-12" value="5" style="rounded=0;whiteSpace=wrap;html=1;" vertex="1" parent="1">
          <mxGeometry x="379" y="331" width="120" height="60" as="geometry" />
        </mxCell>
        <mxCell id="WWvhdYle3YNvxs-en4D2-13" value="2" style="rounded=0;whiteSpace=wrap;html=1;" vertex="1" parent="1">
          <mxGeometry x="-5" y="334" width="120" height="60" as="geometry" />
        </mxCell>
        <mxCell id="WWvhdYle3YNvxs-en4D2-14" value="4" style="rounded=1;whiteSpace=wrap;html=1;" vertex="1" parent="1">
          <mxGeometry x="251" y="331" width="120" height="60" as="geometry" />
        </mxCell>
        <mxCell id="WWvhdYle3YNvxs-en4D2-15" value="&lt;br&gt;&lt;span style=&quot;font-size: 16px;&quot;&gt;1&lt;/span&gt;" style="rounded=0;whiteSpace=wrap;html=1;" vertex="1" parent="1">
          <mxGeometry x="-131" y="331" width="120" height="60" as="geometry" />
        </mxCell>
        <mxCell id="WWvhdYle3YNvxs-en4D2-16" value="3" style="text;strokeColor=none;fillColor=none;html=1;align=center;verticalAlign=middle;whiteSpace=wrap;rounded=0;fontSize=16;" vertex="1" parent="1">
          <mxGeometry x="167" y="346" width="60" height="30" as="geometry" />
        </mxCell>
        <mxCell id="WWvhdYle3YNvxs-en4D2-18" value="" style="curved=1;endArrow=classic;html=1;rounded=0;fontSize=12;startSize=8;endSize=8;" edge="1" parent="1">
          <mxGeometry width="50" height="50" relative="1" as="geometry">
            <mxPoint x="-103" y="326" as="sourcePoint" />
            <mxPoint x="294" y="324" as="targetPoint" />
            <Array as="points">
              <mxPoint x="-99" y="302" />
              <mxPoint x="-44" y="305" />
              <mxPoint x="-83" y="282" />
            </Array>
          </mxGeometry>
        </mxCell>
        <mxCell id="WWvhdYle3YNvxs-en4D2-19" value="Find 5" style="text;strokeColor=none;fillColor=none;html=1;align=center;verticalAlign=middle;whiteSpace=wrap;rounded=0;fontSize=16;" vertex="1" parent="1">
          <mxGeometry x="-84" y="90" width="60" height="30" as="geometry" />
        </mxCell>
        <mxCell id="WWvhdYle3YNvxs-en4D2-23" value="Block found now binary search is used to find inside block" style="text;strokeColor=none;fillColor=none;html=1;align=center;verticalAlign=middle;whiteSpace=wrap;rounded=0;fontSize=16;" vertex="1" parent="1">
          <mxGeometry x="-122" y="408" width="663" height="30" as="geometry" />
        </mxCell>
        <mxCell id="WWvhdYle3YNvxs-en4D2-24" value="6" style="rounded=1;whiteSpace=wrap;html=1;" vertex="1" parent="1">
          <mxGeometry x="128" y="466" width="120" height="60" as="geometry" />
        </mxCell>
        <mxCell id="WWvhdYle3YNvxs-en4D2-25" value="5" style="rounded=0;whiteSpace=wrap;html=1;" vertex="1" parent="1">
          <mxGeometry x="6" y="466" width="120" height="60" as="geometry" />
        </mxCell>
        <mxCell id="WWvhdYle3YNvxs-en4D2-26" value="4" style="rounded=1;whiteSpace=wrap;html=1;" vertex="1" parent="1">
          <mxGeometry x="-122" y="466" width="120" height="60" as="geometry" />
        </mxCell>
        <mxCell id="WWvhdYle3YNvxs-en4D2-27" value="6" style="rounded=1;whiteSpace=wrap;html=1;" vertex="1" parent="1">
          <mxGeometry y="601" width="120" height="60" as="geometry" />
        </mxCell>
        <mxCell id="WWvhdYle3YNvxs-en4D2-28" value="5" style="rounded=0;whiteSpace=wrap;html=1;" vertex="1" parent="1">
          <mxGeometry x="-122" y="601" width="120" height="60" as="geometry" />
        </mxCell>
        <mxCell id="WWvhdYle3YNvxs-en4D2-29" value="5" style="rounded=0;whiteSpace=wrap;html=1;" vertex="1" parent="1">
          <mxGeometry x="-134" y="710" width="120" height="60" as="geometry" />
        </mxCell>
        <mxCell id="WWvhdYle3YNvxs-en4D2-30" value="By eliminating its half array we found our target&amp;nbsp;" style="text;strokeColor=none;fillColor=none;html=1;align=center;verticalAlign=middle;whiteSpace=wrap;rounded=0;fontSize=16;" vertex="1" parent="1">
          <mxGeometry x="-96" y="549" width="454" height="30" as="geometry" />
        </mxCell>
      </root>
    </mxGraphModel>
  </diagram>
</mxfile>
